<svg xmlns="http://www.w3.org/2000/svg" viewBox="0 0 358.22 295.87" class="css-1bjwlpe"><defs><style>.Petrus_Katt_Uten_Prikker_svg__cls-1{fill:#61DAFB}</style></defs><g id="Petrus_Katt_Uten_Prikker_svg__Layer_2" data-name="Layer 2"><g id="Petrus_Katt_Uten_Prikker_svg__Layer_1-2" data-name="Layer 1"><path class="Petrus_Katt_Uten_Prikker_svg__cls-1" d="M87.21 110.51a21.29 21.29 0 01-20.35-15.27 3.69 3.69 0 117.08-2 13.82 13.82 0 0024.72 3.86 3.69 3.69 0 116.11 4.13 21.19 21.19 0 01-17.56 9.28z"></path><path class="Petrus_Katt_Uten_Prikker_svg__cls-1" d="M52.22 110.51a21.17 21.17 0 01-17.56-9.33 3.68 3.68 0 116.1-4.13 13.82 13.82 0 0024.61-3.48 3.68 3.68 0 117 2.26 21.12 21.12 0 01-20.15 14.68z"></path><path class="Petrus_Katt_Uten_Prikker_svg__cls-1" d="M69.71 121a14.17 14.17 0 01-14.15-14.15h7.37a6.79 6.79 0 0013.57 0h7.37A14.17 14.17 0 0169.71 121z"></path><path class="Petrus_Katt_Uten_Prikker_svg__cls-1" d="M68.41 132.16C46 132.16 29 126 17.86 114 2.75 97.59 4.27 76.43 4.34 75.54l3.3-31.06c-13.19-25.89-5.37-41.7-5-42.37L3.53.34l2-.21C20.22-1.43 38.24 11.4 44.16 16c10-4.77 23.63-4.83 24.25-4.83a3.69 3.69 0 010 7.37c-.14 0-14.43.07-22.79 5l-2.25 1.33-2-1.68C41.17 23 22.67 7.6 8.47 7.37c-1.34 4.44-3.33 16.52 6.21 34.69l.52 1-3.52 33.17c0 .08-1.27 18.85 11.66 32.8 9.68 10.46 24.85 15.75 45.07 15.75a3.69 3.69 0 010 7.38z"></path><path class="Petrus_Katt_Uten_Prikker_svg__cls-1" d="M70.9 132.16a3.69 3.69 0 010-7.38c20.22 0 35.39-5.29 45.07-15.75 12.93-14 11.66-32.72 11.65-32.9l-3.51-33.08.52-1c9.53-18.15 7.55-30.22 6.21-34.69-14.2.24-32.71 15.64-32.9 15.84l-2 1.68-2.25-1.33c-8.36-4.94-22.65-5-22.79-5a3.69 3.69 0 010-7.37c.62 0 14.21.06 24.25 4.83C101.06 11.4 119-1.43 133.8.13l2 .21.91 1.77c.35.67 8.17 16.48-5 42.37l3.28 31c.09 1 1.61 22.14-13.5 38.52-11.17 12-28.18 18.16-50.59 18.16z"></path><path class="Petrus_Katt_Uten_Prikker_svg__cls-1" d="M72.87 96.65h-6.68a6.1 6.1 0 110-12.2h6.68a6.1 6.1 0 110 12.2zm0-4.83zM54.4 35.69A3.69 3.69 0 0150.72 32V17.39a3.69 3.69 0 017.37 0V32a3.69 3.69 0 01-3.69 3.69zM85.31 35.69A3.69 3.69 0 0181.62 32V17.39a3.69 3.69 0 017.37 0V32a3.69 3.69 0 01-3.68 3.69zM83.52 75.34a3.69 3.69 0 01-3.68-3.69 13.5 13.5 0 0113.48-13.48h4.3a3.68 3.68 0 010 7.36h-4.3a6.13 6.13 0 00-6.12 6.12 3.69 3.69 0 01-3.68 3.69z"></path><path class="Petrus_Katt_Uten_Prikker_svg__cls-1" d="M98.68 75.92H83.61a3.69 3.69 0 110-7.37h15.07a6.22 6.22 0 006.21-6.21 3.69 3.69 0 117.37 0 13.59 13.59 0 01-13.58 13.58zM58.55 75.34a3.69 3.69 0 01-3.68-3.69 6.13 6.13 0 00-6.12-6.12h-4.48a3.68 3.68 0 110-7.36h4.48a13.5 13.5 0 0113.49 13.48 3.69 3.69 0 01-3.69 3.69z"></path><path class="Petrus_Katt_Uten_Prikker_svg__cls-1" d="M58.47 75.92H43.39a13.59 13.59 0 01-13.58-13.58 3.69 3.69 0 117.37 0 6.22 6.22 0 006.21 6.21h15.08a3.69 3.69 0 010 7.37zM20.61 41.45a3.8 3.8 0 01-2.57-1c-.86-.79-5.18-5.43-5.18-19.09v-4.15l4.13.5c.49.06 11.93 1.54 17.09 9.91a3.68 3.68 0 11-6.27 3.87c-1.7-2.76-4.78-4.39-7.35-5.33.68 6.7 2.65 9 2.67 9a3.6 3.6 0 01.18 5.14 3.64 3.64 0 01-2.7 1.15zM118.48 41.42a3.68 3.68 0 01-2.6-6.3c.16-.19 2-2.53 2.66-9-2.57.93-5.64 2.57-7.34 5.34a3.69 3.69 0 01-6.28-3.87c5.16-8.37 16.61-9.85 17.09-9.91l4.13-.5v4.16c0 13.66-4.31 18.3-5.18 19.09a3.7 3.7 0 01-2.48.99zM193.07 227.86a3.66 3.66 0 01-1.66-.4c-52-26.33-72.42-24.26-72.62-24.23a3.68 3.68 0 01-1-7.3c.89-.12 22.28-2.74 76.94 25a3.68 3.68 0 01-1.66 7z"></path><path class="Petrus_Katt_Uten_Prikker_svg__cls-1" d="M313.93 295.87a22.77 22.77 0 01-2.54-.13H156.75l-37.22.12a50 50 0 110-100 3.69 3.69 0 110 7.37 42.62 42.62 0 000 85.23l37.23-.13h155.41c.45.07 11.67 1.44 21.9-8.49 10.05-9.78 20.86-32.55 15.24-85.58-10.57-99.44-93.38-142.75-143.1-146.67-44.37-3.49-75.1 3.41-75.41 3.51a3.68 3.68 0 01-1.66-7.18c1.29-.3 32.06-7.27 77.65-3.68 52.08 4.11 138.81 49.36 149.83 153.33 4.77 45.1-1.15 76-17.61 91.8a36.3 36.3 0 01-25.08 10.5z"></path><path class="Petrus_Katt_Uten_Prikker_svg__cls-1" d="M95 208.15a3.65 3.65 0 01-2.11-.66C47.63 176 54.1 130.75 54.4 128.84a3.68 3.68 0 017.28 1.16c-.26 1.73-6 42.68 35.39 71.48a3.69 3.69 0 01-2.07 6.67zM127 203.71a3.68 3.68 0 01-3-1.49c-17.56-23.6-15.84-41.37-15.76-42.12a3.69 3.69 0 017.33.79c0 .28-1.28 15.94 14.34 36.93a3.69 3.69 0 01-3 5.89zM111.87 143.23a3.56 3.56 0 01-1.7-.42 3.69 3.69 0 01-1.57-5c.05-.09 3.79-7.52 6.06-23.64a3.69 3.69 0 017.3 1c-2.48 17.58-6.65 25.68-6.82 26a3.69 3.69 0 01-3.27 2.06zM174.76 175.92a3.75 3.75 0 01-1.09-.17 3.68 3.68 0 01-2.43-4.61 64.55 64.55 0 01102.81-30.56 3.68 3.68 0 01-4.7 5.67 57.18 57.18 0 00-91.07 27.07 3.7 3.7 0 01-3.52 2.6zM169 216.61a3.69 3.69 0 01-3.68-3.69v-20.57a3.69 3.69 0 117.37 0v20.57a3.69 3.69 0 01-3.69 3.69zM245.16 75.73a3.66 3.66 0 01-1.29-.23c-34.29-12.8-91.23-9.26-91.8-9.23a3.62 3.62 0 01-3.91-3.43 3.68 3.68 0 013.43-3.92c2.4-.16 59.08-3.68 94.86 9.68a3.68 3.68 0 01-1.29 7.13zM221.85 86.29a3.68 3.68 0 01-1.29-.24c-16.76-6.25-44.85-4.52-45.13-4.5a3.68 3.68 0 11-.43-7.35c1.21-.08 29.93-1.86 48.19 5a3.69 3.69 0 01-1.29 7.14zM293.77 275.21a3.69 3.69 0 110-7.37 35.29 35.29 0 0032.57-21.59 3.69 3.69 0 016.79 2.87 42.67 42.67 0 01-39.36 26.09zM288.18 261.35a3.68 3.68 0 01-1.15-7.18A43.08 43.08 0 00313.22 230a42.64 42.64 0 003.38-16.76 3.69 3.69 0 017.37 0 50.38 50.38 0 01-34.64 47.91 3.55 3.55 0 01-1.15.2zM108.06 249.56H73.21a3.68 3.68 0 110-7.36h34.85a3.68 3.68 0 010 7.36zM95 233.57H76.3a3.69 3.69 0 110-7.37H95a3.69 3.69 0 010 7.37zM95 262.24H76.3a3.69 3.69 0 110-7.37H95a3.69 3.69 0 010 7.37zM302.69 151.25a3.69 3.69 0 01-1.5-7.06 91.15 91.15 0 0026-17.46 3.68 3.68 0 115.09 5.32 98.45 98.45 0 01-28.09 18.88 3.82 3.82 0 01-1.5.32zM314.28 166.84a3.68 3.68 0 01-1.45-7.07 91.41 91.41 0 0023.06-14.23 3.69 3.69 0 014.76 5.63 98.85 98.85 0 01-24.92 15.37 3.52 3.52 0 01-1.45.3zM320.46 184.44a3.68 3.68 0 01-1.19-7.17 91 91 0 0023.4-12 3.68 3.68 0 114.26 6 98.11 98.11 0 01-25.29 12.92 3.48 3.48 0 01-1.18.25zM75.31 11.37a62 62 0 00-11.31 0L66.91 14a3.63 3.63 0 00-.74 2.19v18.7a3.69 3.69 0 007.37 0V16.2a3.62 3.62 0 00-.27-1.36l1.09-.07z"></path></g></g></svg>