<svg viewBox="0 0 276 362" fill="none" xmlns="http://www.w3.org/2000/svg"><path d="M188.91 117.81c-1.1 0-2.14-.5-2.83-1.35l-7.58-9.3a3.677 3.677 0 01-.47-3.88 3.66 3.66 0 013.3-2.08h15.15c1.41 0 2.69.81 3.3 2.08.61 1.27.42 2.78-.47 3.88l-7.58 9.3c-.68.86-1.72 1.35-2.82 1.35z" fill="#61DAFB"></path><path d="M170.64 137.5c-12.09 0-21.93-9.84-21.93-21.93 0-1.87.24-3.73.7-5.53.51-1.95 2.49-3.14 4.46-2.62 1.95.51 3.13 2.5 2.62 4.45-.31 1.2-.47 2.44-.47 3.69 0 8.06 6.56 14.62 14.62 14.62 8.06 0 14.62-6.56 14.62-14.62 0-2.02 1.64-3.66 3.66-3.66 2.02 0 3.66 1.63 3.66 3.66-.01 12.1-9.85 21.94-21.94 21.94z" fill="#61DAFB"></path><path d="M207.19 137.5c-12.09 0-21.93-9.84-21.93-21.93 0-2.02 1.64-3.66 3.66-3.66 2.02 0 3.66 1.63 3.66 3.66 0 8.06 6.56 14.62 14.62 14.62 8.06 0 14.62-6.56 14.62-14.62 0-1.25-.16-2.49-.47-3.69-.51-1.96.67-3.95 2.62-4.45 1.96-.52 3.95.66 4.46 2.62.47 1.8.7 3.66.7 5.53-.02 12.08-9.85 21.92-21.94 21.92z" fill="#61DAFB"></path><path d="M188.91 171.97c-9.67 0-17.53-7.87-17.53-17.53v-19.21c0-2.02 1.64-3.66 3.66-3.66 2.02 0 3.66 1.63 3.66 3.66v19.21c0 5.64 4.59 10.22 10.22 10.22 5.64 0 10.22-4.59 10.22-10.22v-20.36c0-2.02 1.64-3.66 3.66-3.66 2.02 0 3.66 1.63 3.66 3.66v20.36c-.01 9.66-7.88 17.53-17.55 17.53z" fill="#61DAFB"></path><path d="M188.91 154.85c-2.02 0-3.66-1.63-3.66-3.66V122.4c0-2.02 1.64-3.66 3.66-3.66 2.02 0 3.66 1.63 3.66 3.66v28.79c0 2.02-1.64 3.66-3.66 3.66z" fill="#61DAFB"></path><path d="M169.8 189.34c-.56 0-1.13-.13-1.67-.4-61.58-31.66-40.72-98.31-36.16-110.77-19.87-27.29-13.29-71.99-13-73.92l.53-3.46 3.48.38c.82.09 19.75 2.47 36.34 29.89h61.25c2.02 0 3.66 1.63 3.66 3.66 0 2.02-1.64 3.66-3.66 3.66h-65.44l-1.05-1.83c-10.74-18.59-22.57-24.99-28.35-27.11-1.12 11.68-2.74 45.66 13.25 65.87l1.35 1.7-.85 2c-.08.18-7.7 18.35-7.43 40.18.36 28.71 13.63 49.98 39.42 63.25a3.652 3.652 0 01-1.67 6.9z" fill="#61DAFB"></path><path d="M146.43 74.86c.11-.15.23-.29.36-.42 10.95-11.05 21.82-10.74 22.28-10.73a3.656 3.656 0 01-.26 7.31c-.4-.01-8.3-.03-16.82 8.57a3.66 3.66 0 01-5.17.02 3.657 3.657 0 01-.39-4.75zM163.53 92.71c-4.07 0-7.39-3.32-7.39-7.39s3.31-7.39 7.39-7.39 7.39 3.32 7.39 7.39-3.31 7.39-7.39 7.39zm-.07-7.39c0 .04.04.08.08.08l-.08-.08zM163.54 162.88c-.24 0-.49-.02-.74-.07-.38-.08-38.05-8.22-38.05-46 0-2.02 1.64-3.66 3.66-3.66 2.02 0 3.66 1.63 3.66 3.66 0 31.75 30.9 38.56 32.21 38.84 1.97.41 3.24 2.35 2.84 4.32a3.671 3.671 0 01-3.58 2.91zM144.27 68.66c-1.28 0-2.52-.67-3.19-1.87-9.18-16.41-7.99-31.02-7.94-31.63l.55-6.09 5.11 3.37c.24.16 5.96 3.97 9.77 9.23 1.18 1.63.81 3.92-.82 5.1a3.64 3.64 0 01-5.1-.82c-.54-.75-1.14-1.47-1.76-2.15.72 5.08 2.47 12.07 6.59 19.42.99 1.76.36 3.99-1.4 4.98-.59.31-1.2.46-1.81.46zM208.03 189.34c-1.33 0-2.61-.72-3.25-1.98-.92-1.8-.22-4 1.58-4.92 25.87-13.3 39.13-34.66 39.43-63.47.22-21.8-7.35-39.77-7.43-39.95l-.85-2 1.35-1.71c15.99-20.22 14.37-54.2 13.25-65.88-5.76 2.12-17.6 8.52-28.35 27.11a3.659 3.659 0 01-4.99 1.34 3.64 3.64 0 01-1.33-4.99c16.84-29.14 36.59-31.63 37.42-31.72l3.48-.38.53 3.46c.3 1.93 6.88 46.62-13 73.92 4.56 12.46 25.43 79.11-36.16 110.77-.55.28-1.12.4-1.68.4z" fill="#61DAFB"></path><path d="M231.35 74.03c1.03 1.45.88 3.47-.44 4.74a3.661 3.661 0 01-5.17-.08c-8.45-8.73-16.39-8.77-16.73-8.77-2.01.02-3.67-1.58-3.7-3.59-.03-2 1.53-3.66 3.53-3.72.46-.01 11.33-.19 22.15 10.99.14.14.26.28.36.43zM214.29 92.71c-4.07 0-7.39-3.32-7.39-7.39s3.31-7.39 7.39-7.39c4.07 0 7.39 3.32 7.39 7.39s-3.31 7.39-7.39 7.39zm0-7.47l.08.08c0-.04-.03-.08-.08-.08zM214.29 162.88c-1.7 0-3.22-1.19-3.58-2.92-.41-1.98.87-3.91 2.85-4.31 1.39-.29 32.21-7.13 32.21-38.84 0-2.02 1.64-3.66 3.66-3.66 2.02 0 3.66 1.63 3.66 3.66 0 37.78-37.67 45.92-38.05 46-.26.04-.51.07-.75.07zM233.56 68.66c-.6 0-1.22-.15-1.78-.46a3.657 3.657 0 01-1.4-4.98 56.409 56.409 0 006.59-19.42c-.62.67-1.22 1.39-1.76 2.14a3.64 3.64 0 01-5.1.82 3.641 3.641 0 01-.82-5.1c3.8-5.27 9.53-9.07 9.77-9.23l5.11-3.37.55 6.09c.06.61 1.24 15.22-7.94 31.63a3.715 3.715 0 01-3.22 1.88zM188.91 55.9c-2.02 0-3.66-1.63-3.66-3.66V36.71c0-2.02 1.64-3.66 3.66-3.66 2.02 0 3.66 1.63 3.66 3.66v15.53c0 2.02-1.64 3.66-3.66 3.66zM175.68 48.13c-2.02 0-3.66-1.63-3.66-3.66v-7.76c0-2.02 1.64-3.66 3.66-3.66 2.02 0 3.66 1.63 3.66 3.66v7.76c0 2.03-1.64 3.66-3.66 3.66zM202.15 48.13c-2.02 0-3.66-1.63-3.66-3.66v-7.76c0-2.02 1.64-3.66 3.66-3.66 2.02 0 3.66 1.63 3.66 3.66v7.76a3.662 3.662 0 01-3.66 3.66zM228.2 360.61c-2.02 0-3.66-1.63-3.66-3.66v-15.53c0-2.02 1.64-3.66 3.66-3.66 2.02 0 3.66 1.63 3.66 3.66v15.53c0 2.02-1.64 3.66-3.66 3.66zM241.44 360.61c-2.02 0-3.66-1.63-3.66-3.66v-7.76c0-2.02 1.64-3.66 3.66-3.66 2.02 0 3.66 1.63 3.66 3.66v7.76c-.01 2.02-1.65 3.66-3.66 3.66zM214.97 360.61c-2.02 0-3.66-1.63-3.66-3.66v-7.76c0-2.02 1.64-3.66 3.66-3.66 2.02 0 3.66 1.63 3.66 3.66v7.76c0 2.02-1.64 3.66-3.66 3.66zM152.34 360.61c-2.02 0-3.66-1.63-3.66-3.66v-15.53c0-2.02 1.64-3.66 3.66-3.66 2.02 0 3.66 1.63 3.66 3.66v15.53c0 2.02-1.64 3.66-3.66 3.66zM165.58 360.61c-2.02 0-3.66-1.63-3.66-3.66v-7.76c0-2.02 1.64-3.66 3.66-3.66 2.02 0 3.66 1.63 3.66 3.66v7.76c-.01 2.02-1.64 3.66-3.66 3.66zM139.11 360.61c-2.02 0-3.66-1.63-3.66-3.66v-7.76c0-2.02 1.64-3.66 3.66-3.66 2.02 0 3.66 1.63 3.66 3.66v7.76c0 2.02-1.64 3.66-3.66 3.66z" fill="#61DAFB"></path><path d="M248.88 361.01h-40.39c-5.91 0-10.74-3.71-13.28-10.19-3.26-8.32-2.29-21.27 5.93-28.86 7.79-7.2 9.04-24.44 8.87-30.49 2.13-33.22 23.57-55.16 24.48-56.08a3.649 3.649 0 015.16-.02 3.67 3.67 0 01.03 5.17c-.2.2-20.42 21-22.37 51.06.04.68.59 24.82-11.21 35.72-5.55 5.13-6.44 14.8-4.08 20.83.99 2.53 2.91 5.54 6.47 5.54h40.39c3.14 0 5.17-.73 6.04-2.18 2.09-3.48-.89-11.46-2.67-14.78l-.2-.43c-8.68-23-2.14-35.59 4.78-48.92 6.15-11.84 13.12-25.27 11.19-49.59-4.01-50.5-30.83-73.97-31.1-74.2-1.53-1.31-1.72-3.62-.41-5.15 1.31-1.53 3.61-1.72 5.14-.42 1.2 1.01 29.39 25.48 33.66 79.2 2.1 26.41-5.39 40.82-11.99 53.54-6.66 12.81-11.91 22.95-4.51 42.75 1.15 2.2 6.95 14.12 2.38 21.76-1.56 2.62-4.97 5.74-12.31 5.74zM170.59 361.01H130.2c-7.34 0-10.75-3.12-12.31-5.74-4.57-7.64 1.23-19.56 2.38-21.76 7.41-19.8 2.15-29.93-4.51-42.75-6.6-12.72-14.09-27.13-11.99-53.54 4.27-53.71 32.46-78.18 33.66-79.2a3.666 3.666 0 015.15.42 3.648 3.648 0 01-.42 5.15c-.26.23-27.08 23.7-31.1 74.2-1.93 24.32 5.04 37.75 11.19 49.59 6.92 13.33 13.46 25.92 4.78 48.92l-.2.43c-1.77 3.32-4.75 11.3-2.67 14.78.87 1.45 2.9 2.18 6.04 2.18h40.39c3.56 0 5.48-3.01 6.47-5.54 2.36-6.03 1.47-15.7-4.08-20.83-11.8-10.9-11.24-35.04-11.21-36.07-1.94-29.72-22.16-50.51-22.36-50.72a3.64 3.64 0 01.03-5.16 3.649 3.649 0 015.16.02c.91.92 22.34 22.86 24.47 55.74 0 .56-.48 22.18 8.87 30.83 8.21 7.59 9.18 20.53 5.93 28.86-2.53 6.47-7.37 10.19-13.28 10.19z" fill="#61DAFB"></path><path d="M119.45 354.05H91.18l-.49-7.28c-.17.05.69-.25 1.47-1.94 1.5-3.28 3.48-14.32-10.51-45.94-8.12-18.34-9.18-33.81-3.15-45.99 7.69-15.53 24.01-19.6 24.7-19.76 1.96-.45 3.94.74 4.4 2.71.47 1.96-.74 3.93-2.69 4.4-.14.04-13.78 3.51-19.9 15.97-4.98 10.13-3.86 23.49 3.32 39.71 10.74 24.26 14.41 41.32 10.94 50.81h20.18a3.655 3.655 0 110 7.31z" fill="#61DAFB"></path><path d="M54.95 352.85c-.36 0-.59-.01-.66-.01H21.51c-9.13 0-15.41-2.23-18.68-6.63-3.43-4.63-2.06-9.61-1.9-10.16l.87-2.87 2.99.29c.28.02 28.3 2.62 42.35-10.12 5.32-4.83 7.91-11.12 7.91-19.25 0-40.65 22.85-48.22 23.82-48.52 1.92-.59 3.98.48 4.58 2.41.6 1.92-.47 3.95-2.38 4.57-.82.27-18.71 6.69-18.71 41.55 0 10.17-3.47 18.47-10.33 24.68C38.97 340.62 17.27 341.33 8.2 341c.13.31.31.63.55.93 1.79 2.33 6.33 3.61 12.76 3.61h32.93c.26-.02 13.18.37 22.36-8.48 6.36-6.14 9.59-15.33 9.59-27.34 0-2.02 1.64-3.66 3.66-3.66 2.02 0 3.66 1.63 3.66 3.66 0 14.11-4 25.1-11.9 32.67-10.29 9.85-23.72 10.46-26.86 10.46z" fill="#61DAFB"></path><path d="M74.1 312.76c-2.02 0-3.66-1.63-3.66-3.66 0-11.49 1.85-21.42 5.49-29.51a3.642 3.642 0 014.83-1.83 3.65 3.65 0 011.83 4.83c-3.21 7.14-4.85 16.06-4.85 26.51a3.632 3.632 0 01-3.64 3.66zM188.65 240.12c-2.02 0-3.66-1.63-3.66-3.66 0-15.33-15.22-29.09-15.38-29.23-1.5-1.34-1.64-3.66-.3-5.16a3.663 3.663 0 015.16-.3c.73.65 17.83 16.05 17.83 34.69a3.647 3.647 0 01-3.65 3.66z" fill="#61DAFB"></path><path d="M188.3 240.12c-2.02 0-3.66-1.63-3.66-3.66 0-18.64 17.1-34.05 17.83-34.69a3.663 3.663 0 015.16.3 3.654 3.654 0 01-.3 5.16c-.15.14-15.38 13.9-15.38 29.23 0 2.02-1.63 3.66-3.65 3.66zM134.6 206.18c-.9 0-1.79-.32-2.5-.99-14.32-13.4-11.22-25.23-11.08-25.73a3.63 3.63 0 014.5-2.53c1.93.54 3.06 2.52 2.55 4.45-.1.44-1.76 8.38 9.02 18.47a3.662 3.662 0 01.17 5.17c-.72.78-1.69 1.16-2.66 1.16zM124.26 216.64c-.9 0-1.79-.32-2.5-.99-11.07-10.35-8.62-19.69-8.51-20.08a3.63 3.63 0 014.5-2.53c1.92.54 3.05 2.51 2.56 4.43-.08.36-1.08 5.81 6.44 12.84a3.662 3.662 0 01.17 5.17c-.71.77-1.69 1.16-2.66 1.16zM244.38 206.18c-.98 0-1.95-.39-2.67-1.16a3.663 3.663 0 01.17-5.17c10.87-10.17 9.1-18.15 9.02-18.48-.46-1.94.7-3.92 2.63-4.43 1.93-.47 3.89.6 4.43 2.52.14.5 3.24 12.33-11.08 25.73-.71.67-1.6.99-2.5.99zM254.72 216.64c-.98 0-1.95-.39-2.67-1.16a3.65 3.65 0 01.17-5.16c7.61-7.12 6.48-12.71 6.46-12.77-.54-1.95.59-3.96 2.53-4.5 1.96-.55 3.96.59 4.5 2.53.11.39 2.56 9.72-8.51 20.08-.69.65-1.58.98-2.48.98zM58.55 340.92c-2.02 0-3.66-1.63-3.66-3.66 0-2.02 1.64-3.66 3.66-3.66 7.45 0 8.7-12.2 8.72-12.32.19-2.01 1.96-3.51 3.98-3.29 2.01.19 3.48 1.96 3.3 3.97-.61 6.56-4.72 18.96-16 18.96z" fill="#61DAFB"></path></svg>